<mxfile host="app.diagrams.net" agent="Mozilla/5.0 (Windows NT 10.0; Win64; x64) AppleWebKit/537.36 (KHTML, like Gecko) Chrome/122.0.0.0 Safari/537.36" version="26.2.14">
  <diagram id="p_TwzDkL6H-XKGZGjELu" name="Page-1">
    <mxGraphModel dx="1042" dy="535" grid="1" gridSize="10" guides="1" tooltips="1" connect="1" arrows="1" fold="1" page="1" pageScale="1" pageWidth="850" pageHeight="1100" math="0" shadow="0">
      <root>
        <mxCell id="0" />
        <mxCell id="1" parent="0" />
        <mxCell id="UStVmG-zJp6zHrI9PgVY-29" value="Submit() :HomePage" style="rounded=0;whiteSpace=wrap;html=1;" vertex="1" parent="1">
          <mxGeometry x="350" y="1080" width="120" height="60" as="geometry" />
        </mxCell>
        <mxCell id="UStVmG-zJp6zHrI9PgVY-30" value="value : integer&lt;div&gt;comment : String&lt;/div&gt;" style="rounded=0;whiteSpace=wrap;html=1;" vertex="1" parent="1">
          <mxGeometry x="350" y="1020" width="120" height="60" as="geometry" />
        </mxCell>
        <mxCell id="UStVmG-zJp6zHrI9PgVY-31" value="Rate" style="rounded=0;whiteSpace=wrap;html=1;" vertex="1" parent="1">
          <mxGeometry x="350" y="960" width="120" height="60" as="geometry" />
        </mxCell>
        <mxCell id="UStVmG-zJp6zHrI9PgVY-33" value="Rate" style="rounded=1;whiteSpace=wrap;html=1;" vertex="1" parent="1">
          <mxGeometry x="210" y="1200" width="90" height="40" as="geometry" />
        </mxCell>
        <mxCell id="UStVmG-zJp6zHrI9PgVY-34" value="HomePage" style="rounded=1;whiteSpace=wrap;html=1;" vertex="1" parent="1">
          <mxGeometry x="490" y="1210" width="110" height="40" as="geometry" />
        </mxCell>
        <mxCell id="UStVmG-zJp6zHrI9PgVY-35" value="" style="endArrow=none;html=1;rounded=0;" edge="1" parent="1">
          <mxGeometry width="50" height="50" relative="1" as="geometry">
            <mxPoint x="545" y="1410" as="sourcePoint" />
            <mxPoint x="545" y="1250" as="targetPoint" />
          </mxGeometry>
        </mxCell>
        <mxCell id="UStVmG-zJp6zHrI9PgVY-36" value="" style="endArrow=none;html=1;rounded=0;" edge="1" parent="1">
          <mxGeometry width="50" height="50" relative="1" as="geometry">
            <mxPoint x="260" y="1400" as="sourcePoint" />
            <mxPoint x="260" y="1240" as="targetPoint" />
          </mxGeometry>
        </mxCell>
        <mxCell id="UStVmG-zJp6zHrI9PgVY-37" value="" style="endArrow=classic;html=1;rounded=0;" edge="1" parent="1">
          <mxGeometry width="50" height="50" relative="1" as="geometry">
            <mxPoint x="200" y="1290" as="sourcePoint" />
            <mxPoint x="250" y="1300" as="targetPoint" />
          </mxGeometry>
        </mxCell>
        <mxCell id="UStVmG-zJp6zHrI9PgVY-38" value="save rate and comment" style="text;html=1;align=center;verticalAlign=middle;resizable=0;points=[];autosize=1;strokeColor=none;fillColor=none;" vertex="1" parent="1">
          <mxGeometry x="120" y="1260" width="150" height="30" as="geometry" />
        </mxCell>
        <mxCell id="UStVmG-zJp6zHrI9PgVY-39" value="" style="endArrow=classic;html=1;rounded=0;" edge="1" parent="1">
          <mxGeometry width="50" height="50" relative="1" as="geometry">
            <mxPoint x="290" y="1334" as="sourcePoint" />
            <mxPoint x="525" y="1334" as="targetPoint" />
          </mxGeometry>
        </mxCell>
        <mxCell id="UStVmG-zJp6zHrI9PgVY-40" value="&amp;nbsp; redirects to&amp;nbsp;" style="text;html=1;align=center;verticalAlign=middle;resizable=0;points=[];autosize=1;strokeColor=none;fillColor=none;" vertex="1" parent="1">
          <mxGeometry x="350" y="1300" width="90" height="30" as="geometry" />
        </mxCell>
      </root>
    </mxGraphModel>
  </diagram>
</mxfile>
